<?xml version="1.0" encoding="UTF-8"?>
<svg width="80px" height="80px" viewBox="0 0 80 80" version="1.1" xmlns="http://www.w3.org/2000/svg" xmlns:xlink="http://www.w3.org/1999/xlink">
    <title>curso-basico-operativo</title>
    <defs>
        <circle id="path-1" cx="40" cy="40" r="40"></circle>
        <filter color-interpolation-filters="auto" id="filter-3">
            <feColorMatrix in="SourceGraphic" type="matrix" values="0 0 0 0 1.000000 0 0 0 0 1.000000 0 0 0 0 1.000000 0 0 0 1.000000 0"></feColorMatrix>
        </filter>
    </defs>
    <g id="Page-1" stroke="none" stroke-width="1" fill="none" fill-rule="evenodd">
        <g id="Desktop-HD" transform="translate(-240.000000, -1265.000000)">
            <g id="curso-basico-operativo" transform="translate(240.000000, 1265.000000)">
                <mask id="mask-2" fill="white">
                    <use xlink:href="#path-1"></use>
                </mask>
                <use id="Mask" fill="#276CFE" xlink:href="#path-1"></use>
                <g filter="url(#filter-3)" id="noun_Worker_3846216">
                    <g mask="url(#mask-2)">
                        <g transform="translate(9.870130, 12.467532)" fill="#000000" fill-rule="nonzero">
                            <path d="M30.1298701,74.2857143 C20.0700019,74.2387471 10.1055204,72.3222948 0.739099919,68.6330357 C0.294887115,68.4607576 0.00140649887,68.0321256 0,67.5535714 C0,54.7857143 13.5116704,44.4089286 30.1298701,44.4089286 C46.7480699,44.4089286 60.2597403,54.8553571 60.2597403,67.5535714 C60.2583338,68.0321256 59.9648531,68.4607576 59.5206403,68.6330357 C50.1542199,72.3222948 40.1897384,74.2387471 30.1298701,74.2857143 Z M2.32123568,66.7526786 C20.2195496,73.6810216 40.0401907,73.6810216 57.9385046,66.7526786 C57.3726312,55.6446429 45.1428372,46.7303571 30.1298701,46.7303571 C15.116903,46.7303571 2.88710906,55.6446429 2.32123568,66.7526786 Z" id="Shape"></path>
                            <path d="M30.1298701,42.7607143 C21.9766741,42.7607143 15.4171624,32.7205357 15.4171624,24.4214286 C15.4171624,24.1660714 15.4171624,23.9223214 15.4171624,23.6785714 C15.4171624,23.0375266 15.9342035,22.5178571 16.572006,22.5178571 C17.2098085,22.5178571 17.7268496,23.0375266 17.7268496,23.6785714 C17.7268496,23.9107143 17.7268496,24.1080357 17.7268496,24.3285714 C17.7268496,31.3857143 23.5703583,40.3464286 30.1298701,40.3464286 C35.7193133,40.3464286 42.5444391,32.9526786 42.5444391,24.3285714 C42.5444391,24.1080357 42.5444391,23.9107143 42.5444391,23.7017857 L44.8541263,23.5625 L43.6992827,23.6205357 L44.8541263,23.6205357 C44.8541263,23.8642857 44.8541263,24.1080357 44.8541263,24.3633929 C44.8541263,32.7205357 38.2830661,42.7607143 30.1298701,42.7607143 Z" id="Path"></path>
                            <path d="M43.8956061,20.1383929 C43.7846732,20.1561881 43.6716343,20.1561881 43.5607015,20.1383929 L16.6066513,20.1383929 C16.4099807,20.1916176 16.2028032,20.1916176 16.0061326,20.1383929 C15.5294092,19.9990801 15.1946209,19.5691203 15.1746452,19.0705357 C15.1551961,18.7303401 15.1551961,18.3893028 15.1746452,18.0491071 C15.1662459,11.250794 19.6820034,5.28630672 26.2034018,3.48214286 C26.8187077,3.31996245 27.4486446,3.68842874 27.612311,4.30625 C27.7744691,4.92117234 27.4139457,5.55270735 26.8039205,5.72232143 C21.3655791,7.20373008 17.5479795,12.1086718 17.4265903,17.7705357 L43.8725092,17.7705357 C44.1794701,17.768752 44.4745075,17.8898728 44.6924482,18.1071429 C45.0575806,18.4303804 45.1819683,18.948966 45.0034929,19.4039221 C44.8250175,19.8588781 44.3819705,20.152595 43.8956061,20.1383929 Z" id="Path"></path>
                            <path d="M43.9879936,20.1616107 L43.9879936,20.1616107 C43.3501911,20.1616107 42.83315,19.6419377 42.83315,19.0008929 L42.83315,19.0008929 C42.83315,18.5946429 42.83315,18.3160714 42.83315,17.9910714 C42.8194664,12.2383476 38.9798116,7.20526271 33.4558198,5.69910714 C32.8411233,5.53460875 32.4745207,4.9014695 32.6358808,4.28303571 C32.809573,3.66880971 33.444273,3.31094852 34.0563384,3.48214286 C40.5799824,5.25879277 45.118124,11.19787 45.1428372,17.9910714 C45.1428372,18.3625 45.1428372,18.6991071 45.1428372,19.0821429 C45.1003124,19.6912572 44.5955155,20.1631049 43.9879936,20.1616107 Z" id="Path"></path>
                            <path d="M45.2121278,24.8625 L15.0476124,24.8625 C13.9380048,24.8889576 12.9310435,24.2132226 12.530006,23.1730262 C12.1289686,22.1328298 12.4199846,20.9515718 13.2576048,20.2196429 L15.567292,18.0258929 C15.7802718,17.8254779 16.0608319,17.7135127 16.3525857,17.7125 L43.8725092,17.7125 C44.164263,17.7135127 44.4448231,17.8254779 44.6578029,18.0258929 L46.9674902,20.2196429 C47.8051103,20.9515718 48.0961263,22.1328298 47.6950889,23.1730262 C47.2940515,24.2132226 46.2870902,24.8889576 45.1774825,24.8625 L45.2121278,24.8625 Z M16.83762,20.0919643 L14.8281921,21.9839286 C14.7229614,22.0714317 14.689743,22.2192895 14.7473531,22.34375 C14.7897038,22.4716251 14.9140791,22.5533608 15.0476124,22.5410714 L45.2121278,22.5410714 C45.3456611,22.5533608 45.4700364,22.4716251 45.5123872,22.34375 C45.5699972,22.2192895 45.5367788,22.0714317 45.4315481,21.9839286 L43.4221202,20.0919643 L16.83762,20.0919643 Z" id="Shape"></path>
                            <path d="M32.774462,11.1544643 L32.5665902,11.1544643 C32.2648388,11.1007141 31.9967164,10.9286216 31.8212676,10.6760844 C31.6458189,10.4235472 31.577432,10.1112753 31.6311668,9.80803571 L32.8553011,3.13392857 C32.891973,2.94404177 32.8410083,2.74768368 32.7167198,2.6 C32.5992262,2.43326434 32.4116762,2.33044431 32.2085887,2.32142857 L28.0511516,2.32142857 C27.8571978,2.32518956 27.673371,2.40917196 27.5430204,2.55357143 C27.4211481,2.70703863 27.3706819,2.90570273 27.4044392,3.09910714 L28.6285734,9.77321429 C28.7028389,10.1878976 28.551351,10.6109023 28.2311739,10.8828866 C27.9109968,11.154871 27.4707729,11.2345141 27.0763303,11.0918152 C26.6818877,10.9491163 26.3931516,10.6057547 26.3188862,10.1910714 L25.1293972,3.48214286 C24.9874526,2.6175546 25.2294016,1.73385819 25.7914687,1.06398737 C26.3535358,0.394116545 27.1793196,0.00529050725 28.0511516,0 L32.2085887,0 C33.0817965,0.00128793001 33.9101321,0.388998103 34.4730766,1.05991454 C35.036021,1.73083098 35.276445,2.61686709 35.130343,3.48214286 L33.9062088,10.15625 C33.8263111,10.7244137 33.345341,11.1486351 32.774462,11.1544643 Z" id="Path"></path>
                        </g>
                    </g>
                </g>
            </g>
        </g>
    </g>
</svg>