<?xml version="1.0" encoding="UTF-8"?>
<svg width="80px" height="80px" viewBox="0 0 80 80" version="1.1" xmlns="http://www.w3.org/2000/svg" xmlns:xlink="http://www.w3.org/1999/xlink">
    <title>Curso-de-coordinador</title>
    <defs>
        <circle id="path-1" cx="40" cy="40" r="40"></circle>
        <filter color-interpolation-filters="auto" id="filter-3">
            <feColorMatrix in="SourceGraphic" type="matrix" values="0 0 0 0 1.000000 0 0 0 0 1.000000 0 0 0 0 1.000000 0 0 0 1.000000 0"></feColorMatrix>
        </filter>
    </defs>
    <g id="Page-1" stroke="none" stroke-width="1" fill="none" fill-rule="evenodd">
        <g id="Desktop-HD" transform="translate(-781.000000, -1694.000000)">
            <g id="Curso-de-coordinador" transform="translate(781.000000, 1694.000000)">
                <mask id="mask-2" fill="white">
                    <use xlink:href="#path-1"></use>
                </mask>
                <use id="Mask" fill="#276CFE" xlink:href="#path-1"></use>
                <g filter="url(#filter-3)" id="noun_industry-policy_3844996">
                    <g mask="url(#mask-2)">
                        <g transform="translate(12.000000, 23.000000)" fill="#000000" fill-rule="nonzero">
                            <path d="M50.1250683,74 L5.87508309,74 C3.37158625,73.9965667 1.14528599,72.4055241 0.329147604,70.0365544 C0.118246318,69.409748 0.45492427,68.7304903 1.08113886,68.5193897 C1.70735344,68.3082891 2.38596994,68.6452852 2.59687122,69.2720915 C3.09503638,70.6824475 4.42758665,71.625069 5.92208254,71.6242848 L50.1250683,71.6242848 C52.0718494,71.6242848 53.6500273,70.0446156 53.6500273,68.0959949 L53.6500273,9.09122695 C53.6500273,7.14260625 52.0718494,5.56293706 50.1250683,5.56293706 L40.8779259,5.56293706 C40.2289989,5.56293706 39.7029396,5.03638067 39.7029396,4.38684043 C39.7029396,3.7373002 40.2289989,3.2107438 40.8779259,3.2107438 L50.1250683,3.2107438 C53.3697035,3.2107438 56,5.84352579 56,9.09122695 L56,68.1195168 C56,71.367218 53.3697035,74 50.1250683,74 L50.1250683,74 Z" id="Path"></path>
                            <path d="M1.16292892,48.0922628 C-0.024266259,48.0922628 0,42.1539903 0,41.5044501 L0,9.09122695 C0,5.84352579 2.63044793,3.2107438 5.87508309,3.2107438 L15.1222255,3.2107438 C15.7711526,3.2107438 16.2972119,3.7373002 16.2972119,4.38684043 C16.2972119,5.03638067 15.7711526,5.56293706 15.1222255,5.56293706 L5.87508309,5.56293706 C3.92830199,5.56293706 2.35012409,7.14260625 2.35012409,9.09122695 L2.35012409,41.5044501 C2.35012409,42.1539903 2.35012409,48.0922628 1.16292892,48.0922628 Z" id="Path"></path>
                            <path d="M36.5774759,69.2956332 L10.3400311,69.2956332 C9.69110412,69.2956332 9.16504482,68.7690571 9.16504482,68.1195168 C9.16504482,67.4699766 9.69110412,66.9434202 10.3400311,66.9434202 L36.0957315,66.9434202 L48.950082,54.0769231 L48.950082,10.2673236 L40.7251777,10.2673236 C40.0762507,10.2673236 39.5501914,9.74076719 39.5501914,9.09122695 C39.5501914,8.44168672 40.0762507,7.91513032 40.7251777,7.91513032 L50.1250683,7.91513032 C50.7739954,7.91513032 51.3000743,8.44168672 51.3000743,9.09122695 L51.3000743,54.5591227 C51.3018603,54.8717327 51.1792502,55.1721997 50.9593086,55.3941513 L37.4117162,68.9545455 C37.1899742,69.1746949 36.8897908,69.2974209 36.5774759,69.2956332 Z" id="Path"></path>
                            <path d="M5.87508309,52.0087929 C4.70009676,52.0087929 4.70009676,47.3288155 4.70009676,46.6792753 L4.70009676,9.04418309 C4.70009676,8.39464286 5.22615606,7.86808646 5.87508309,7.86808646 L15.2749737,7.86808646 C15.9239008,7.86808646 16.4499601,8.39464286 16.4499601,9.04418309 C16.4499601,9.69372332 15.9239008,10.2202797 15.2749737,10.2202797 L7.05006942,10.2202797 L7.05006942,46.6792753 C7.05006942,47.3288155 7.05006942,52.0087929 5.87508309,52.0087929 Z" id="Path"></path>
                            <path d="M37.8464612,12.6195168 L18.2124396,12.6195168 C15.8614244,12.6130341 13.9589891,10.7035318 13.9589891,8.35028608 L13.9589891,4.2574698 C13.9589891,1.90613416 15.8633237,0 18.2124396,0 L37.8464612,0 C40.195577,0 42.0999117,1.90613416 42.0999117,4.2574698 L42.0999117,8.35028608 C42.0999117,10.7035318 40.1974764,12.6130341 37.8464612,12.6195168 Z M18.2124396,2.35219326 C17.1611778,2.35219326 16.3089254,3.20521462 16.3089254,4.2574698 L16.3089254,8.35028608 C16.3058328,8.8576315 16.5049951,9.34527293 16.8623062,9.70512931 C17.2196172,10.0649857 17.7055635,10.2673236 18.2124396,10.2673236 L37.8464612,10.2673236 C38.8996207,10.2608563 39.749939,9.40446067 39.749939,8.35028608 L39.749939,4.2574698 C39.7435254,3.20788523 38.8950549,2.35861292 37.8464612,2.35219326 L18.2124396,2.35219326 Z" id="Shape"></path>
                            <path d="M14.0059885,23.73363 C13.3502414,23.7313927 12.7231794,23.4642155 12.2670087,22.9926891 L11.1625216,21.8165925 C10.7147619,21.3456758 10.733174,20.6005985 11.2036461,20.1524158 C11.6741182,19.704233 12.4184921,19.7226625 12.8662518,20.1935791 L13.9707389,21.3696758 L16.9552042,18.1118881 C17.3899853,17.6279806 18.1343592,17.5884889 18.6178099,18.0236809 C19.1012605,18.4588728 19.1407149,19.2039501 18.7059338,19.6878576 L15.768468,22.9456453 C15.3262932,23.4427405 14.6944206,23.7290613 14.0294882,23.73363 L14.0059885,23.73363 Z" id="Path"></path>
                            <path d="M43.9916397,21.9106802 L24.0168721,21.9106802 C23.367945,21.9106802 22.8418857,21.3841238 22.8418857,20.7345836 C22.8418857,20.0850434 23.367945,19.558487 24.0168721,19.558487 L43.9916397,19.558487 C44.6405667,19.558487 45.166626,20.0850434 45.166626,20.7345836 C45.166626,21.3841238 44.6405667,21.9106802 43.9916397,21.9106802 Z" id="Path"></path>
                            <path d="M14.0059885,33.9421488 C13.3502414,33.9399115 12.7231794,33.6727342 12.2670087,33.2012079 L11.1625216,32.0251113 C10.9400818,31.8042796 10.8149626,31.5036742 10.8149626,31.1900826 C10.8149626,30.8764911 10.9400818,30.5758857 11.1625216,30.355054 C11.6208103,29.8990536 12.3609636,29.8990536 12.8192523,30.355054 L13.9237395,31.5311507 L16.9082047,28.273363 C17.3689429,27.7764648 18.1448804,27.7475042 18.6413095,28.2086777 C19.1377387,28.6698513 19.166672,29.4465219 18.7059338,29.9434202 L15.768468,33.2012079 C15.3262932,33.6983032 14.6944206,33.9846239 14.0294882,33.9891926 L14.0059885,33.9421488 Z" id="Path"></path>
                            <path d="M43.9916397,32.107438 L24.0168721,32.107438 C23.367945,32.107438 22.8418857,31.5808816 22.8418857,30.9313414 C22.8418857,30.2818012 23.367945,29.7552448 24.0168721,29.7552448 L43.9916397,29.7552448 C44.6405667,29.7552448 45.166626,30.2818012 45.166626,30.9313414 C45.166626,31.5808816 44.6405667,32.107438 43.9916397,32.107438 Z" id="Path"></path>
                            <path d="M14.0059885,44.1507215 C13.3464875,44.1551345 12.7154646,43.8820018 12.2670087,43.3979657 L11.1625216,42.221869 C10.7725617,41.7442967 10.8174433,41.0463117 11.2653498,40.6227174 C11.7132562,40.1991232 12.4120052,40.1938415 12.8662518,40.6106167 L13.9707389,41.7867133 L16.9552042,38.5289256 C17.3871592,38.0458874 18.1281667,38.0038047 18.6119349,38.4348379 C18.847253,38.6428522 18.9896177,38.9364766 19.0072769,39.250223 C19.0249361,39.5639694 18.9164209,39.8717413 18.7059338,40.1048951 L15.768468,43.3509218 C15.3284179,43.8523822 14.6962529,44.1431109 14.0294882,44.1507215 L14.0059885,44.1507215 Z" id="Path"></path>
                            <path d="M43.9916397,42.3159568 L24.0168721,42.3159568 C23.367945,42.3159568 22.8418857,41.7894004 22.8418857,41.1398601 C22.8418857,40.4903199 23.367945,39.9637635 24.0168721,39.9637635 L43.9916397,39.9637635 C44.6405667,39.9637635 45.166626,40.4903199 45.166626,41.1398601 C45.166626,41.7894004 44.6405667,42.3159568 43.9916397,42.3159568 Z" id="Path"></path>
                        </g>
                    </g>
                </g>
            </g>
        </g>
    </g>
</svg>