<?xml version="1.0" encoding="UTF-8"?>
<svg width="18px" height="18px" viewBox="0 0 18 18" version="1.1" xmlns="http://www.w3.org/2000/svg" xmlns:xlink="http://www.w3.org/1999/xlink">
    <title>icono-tel</title>
    <g id="Page-1" stroke="none" stroke-width="1" fill="none" fill-rule="evenodd">
        <g id="Artboard" transform="translate(-6.000000, -6.000000)" fill="#276CFE" fill-rule="nonzero">
            <g id="icono-tel" transform="translate(6.000000, 6.000068)">
                <path d="M17.486578,12.7194611 L13.5490305,11.0319407 C13.2034846,10.8846769 12.8021995,10.983565 12.5646436,11.2745218 L10.8208726,13.4050162 C8.08418626,12.1146951 5.88178273,9.91229154 4.59146161,7.17560519 L6.72195603,5.43183417 C7.01354376,5.19467774 7.11254521,4.79293272 6.96453708,4.44744731 L5.27701674,0.509899854 C5.11391828,0.135968569 4.70801479,-0.0691971936 4.31020822,0.0212220891 L0.653914152,0.864982258 C0.271061951,0.9533909 0,1.29436952 0,1.68729686 C0,10.7049837 7.30907248,18 16.3126966,18 C16.7057554,18.0002455 17.0469246,17.7290597 17.1353628,17.3460793 L17.979123,13.6897853 C18.0689543,13.2900689 17.8622609,12.8828783 17.486578,12.7194611 L17.486578,12.7194611 Z" id="Path"></path>
            </g>
        </g>
    </g>
</svg>