<?xml version="1.0" encoding="UTF-8"?>
<svg width="111px" height="75px" viewBox="0 0 111 75" version="1.1" xmlns="http://www.w3.org/2000/svg" xmlns:xlink="http://www.w3.org/1999/xlink">
    <title>whats-guia</title>
    <g id="Page-1" stroke="none" stroke-width="1" fill="none" fill-rule="evenodd">
        <g id="whats-guia" transform="translate(0.712498, 0.020472)" fill="#3B6BF5" fill-rule="nonzero">
            <g id="Group-4">
                <g id="underscore" transform="translate(54.899583, 33.526943) rotate(-24.000000) translate(-54.899583, -33.526943) translate(0.326338, 21.124709)">
                    <path d="M107.553014,11.230709 C107.287306,11.245429 107.250559,11.239609 107.165391,11.240279 C107.046094,11.238379 106.995635,11.235619 106.940224,11.233469 C106.755446,11.224399 106.676262,11.218019 106.568344,11.210969 L106.32641,11.193369 L106.392034,11.144499 C106.513798,11.153699 106.639221,11.162829 106.797447,11.172519 C106.857968,11.175889 106.914696,11.179569 107.036469,11.183559 C107.073661,11.184479 107.101513,11.185579 107.1702,11.185949 C107.236268,11.184349 107.294456,11.190609 107.533033,11.172399 C107.97083,11.272769 108.439106,10.723079 107.852414,10.677339 C107.619376,10.598549 107.587437,10.601989 107.512473,10.582489 C107.404556,10.559859 107.35731,10.552319 107.310929,10.544289 L107.202726,10.526809 L107.044928,10.503699 L106.762596,10.465799 L106.753995,10.410739 L106.953198,10.436369 C107.051927,10.449799 107.144244,10.461879 107.295765,10.485369 C107.346538,10.493221 107.397244,10.5016814 107.447874,10.510749 C107.49414,10.5190383 107.540323,10.5279722 107.586413,10.537549 C107.679167,10.561389 107.709058,10.553979 108.003348,10.653119 C108.811422,10.758399 107.889749,11.386759 107.553014,11.230709 L107.553014,11.230709 Z M104.745985,10.5102224 L103.716088,10.4445579 L103.398364,10.4195626 C99.3595072,10.1072834 95.3083941,9.83960159 91.2360026,9.59989043 C83.0925947,9.12365736 74.874982,8.76618437 66.5922951,8.56332443 C75.7169144,8.77989419 84.7650749,9.18188682 93.7251328,9.72727831 C95.9656171,9.86562755 98.2004704,10.0127277 100.430197,10.1692855 C101.545935,10.2494117 102.660549,10.3319234 103.773904,10.4172614 L105.449012,10.5513194 L105.592295,10.5633244 L104.745977,10.5102224 L104.745985,10.5102224 Z M105.299353,10.6368702 C104.170227,10.5592009 103.039961,10.4845656 101.90855,10.41251 C99.6535906,10.2646726 97.3938121,10.1272027 95.1301051,9.99907978 C86.085668,9.48204387 76.9777837,9.10144313 67.8417208,8.91459628 C63.2744524,8.82213411 58.7004662,8.77961522 54.1338331,8.80439111 C49.5679667,8.82899922 45.0102128,8.92787907 40.4737809,9.08635668 C43.8046929,8.94121079 47.1513408,8.82766395 50.5105554,8.75174933 C54.659564,8.69825466 58.8179703,8.70618239 62.9720611,8.75903389 C67.1267872,8.812193 71.2777089,8.91103789 75.4188532,9.04678796 C83.7035588,9.3185118 91.946139,9.73352894 100.14341,10.2554515 C101.483952,10.3404963 102.821441,10.4289317 104.162487,10.5194154 L106.09347,10.6816612 L106.473781,10.7153085 L105.299353,10.6368702 L105.299353,10.6368702 Z M38.8321728,9.93455581 C42.3510975,9.84938645 45.8733017,9.79975691 49.3890913,9.7921427 C52.9016229,9.78432271 56.4209304,9.82154315 59.9379841,9.89258164 C56.1669708,9.83369844 52.4007325,9.8139701 48.6421442,9.84635448 C44.8800523,9.87823812 41.1155622,9.95756306 37.358368,10.0765916 C29.8437052,10.3155817 22.3576776,10.7098879 14.9526141,11.2302126 C13.0970465,11.3584537 11.244744,11.4937602 9.38980489,11.6330659 C7.52897112,11.7713152 5.68910079,11.9179813 3.7609702,12.0482391 C3.27388451,12.0801227 2.78416936,12.1109911 2.24096927,12.134506 C1.96579345,12.1456049 1.68295319,12.1563745 1.32505053,12.1557322 C1.1442752,12.1543166 0.941033877,12.1518334 0.687319936,12.1304656 C0.562658998,12.119696 0.4234349,12.102787 0.295140396,12.0756228 C0.164960482,12.0474365 0.0605117076,12.0123631 -0.00451684694,11.9659302 L-0.0269828328,11.9478893 L-0.0316349533,11.9434305 C-0.119129494,11.9123015 0.00414447686,11.7732084 0.0645281346,11.7637901 C0.125540262,11.7313989 0.25145814,11.6912357 0.271923136,11.6866466 C0.312593071,11.6747862 0.372218231,11.6596058 0.404732509,11.6522043 L0.484454251,11.6347053 C0.506500402,11.6300954 0.528594249,11.6256935 0.550732521,11.6215005 L0.603834599,11.6115266 C0.728495537,11.5891984 0.806707508,11.5777085 0.883409706,11.566102 C1.03292048,11.5440208 1.15708298,11.5274959 1.28198952,11.5111768 C1.52854469,11.4791217 1.76305057,11.4506061 1.99679796,11.4230167 C2.46341865,11.3678788 2.92351626,11.3167333 3.38435792,11.2666853 C5.22473392,11.0682015 7.06711813,10.8902005 8.92004907,10.7212063 C16.3296346,10.0505593 23.8574736,9.53128409 31.4625059,9.1557322 C25.6365774,9.45065581 19.8593588,9.83336232 14.1472916,10.2997153 C11.2915686,10.5336979 8.45266988,10.7877037 5.63486458,11.0723173 C4.92997441,11.1436987 4.22709245,11.2170901 3.5243333,11.2938907 C2.81869185,11.3714047 2.12597377,11.4489667 1.39723064,11.542889 L1.11213656,11.5813304 C1.01107574,11.5957151 0.914667044,11.6091806 0.771426519,11.6332305 C0.738789437,11.6386565 0.691213559,11.6471967 0.641499438,11.65691 C0.616389546,11.6616637 0.572454457,11.6710409 0.540438621,11.6782366 C0.529393447,11.6805483 0.49198144,11.6895962 0.462609511,11.697375 C0.430470871,11.7061211 0.409254601,11.7116774 0.371972622,11.7236201 C0.312340239,11.7429643 0.2604951,11.7645035 0.22233182,11.7857822 C0.16646303,11.8122398 0.113238148,11.8786961 0.158184568,11.9158342 L0.175752824,11.9321944 C0.201238354,11.9528077 0.221956183,11.963742 0.251833777,11.9772829 C0.367956195,12.0306509 0.571825987,12.0643455 0.744315637,12.0808773 C1.09794904,12.1128021 1.3610828,12.1083844 1.59733684,12.1066627 C1.8334753,12.1033015 2.0438754,12.0955501 2.24787522,12.0867697 C3.05407181,12.0502147 3.77628463,11.9983146 4.50603186,11.9467026 C5.95510962,11.8416403 7.37380412,11.7295948 8.79614663,11.6207391 C10.217095,11.5115129 11.6357967,11.4042144 13.0561237,11.3005377 C15.8967779,11.0930128 18.7439624,10.9003802 21.6001838,10.7267969 C27.310994,10.3796302 33.0623586,10.1098609 38.8321728,9.93455581 L38.8321728,9.93455581 Z M108.794827,11.0234966 C108.513338,10.8559363 108.036735,10.7353509 108.270488,10.8677205 C108.14092,10.8490315 108.092429,10.8438351 108.037237,10.8371308 C107.849454,10.8153486 107.756003,10.8066512 107.644871,10.795663 C107.436124,10.7753497 107.251117,10.7586863 107.065348,10.7421781 C106.696338,10.7095629 106.338199,10.6794845 105.980431,10.6500468 C105.269479,10.5928736 104.558408,10.5368863 103.847221,10.4820853 C102.431183,10.376222 101.013502,10.2744874 99.5936782,10.1764414 C93.9199336,9.79021092 88.214738,9.4692107 82.4743128,9.20748719 C76.7343963,8.94679908 70.960253,8.74710257 65.156054,8.62564355 C62.2540126,8.56521496 59.34453,8.52449781 56.4289796,8.50756253 C53.5150715,8.49025839 50.5860048,8.4983151 47.6705852,8.53358993 C40.9619336,8.61520542 34.2935694,8.82697082 27.6837904,9.13610923 C32.3827394,8.94331107 37.104797,8.8003869 41.8430233,8.71749657 C40.2725431,8.77646266 38.7066046,8.84208768 37.1450844,8.91386686 C41.4051963,8.8077706 45.6799508,8.74741966 49.9590001,8.74297391 C54.2427292,8.73848933 58.5110454,8.79379916 62.7616813,8.89232404 C58.9106125,8.82840097 55.0508236,8.80010863 51.1832082,8.81915354 C47.317613,8.83859967 43.4604837,8.90485887 39.6180043,9.0096544 C36.7134414,9.08901142 33.8061025,9.1918591 31.072274,9.30629034 C28.3378204,9.42060509 25.7763759,9.54614747 23.5580496,9.66498563 C19.1215207,9.90289491 16.0551833,10.1094251 15.6979237,10.1281529 C19.987459,9.89289682 24.2960625,9.69720601 28.6180443,9.5443614 C24.2725689,9.77386452 19.9558846,10.0466539 15.6724171,10.3590409 C11.3890659,10.6721073 7.13716552,11.0227847 2.92870632,11.4214335 C8.93433482,10.896647 15.0135837,10.4646647 21.1415785,10.1100981 C18.0243515,10.3101182 14.9232932,10.5326388 11.8414194,10.7799896 C10.2852112,10.904982 8.73379185,11.0362773 7.18679803,11.1758623 C5.63740615,11.3163662 4.10442279,11.4611929 2.54189973,11.6299051 C2.14334266,11.6737155 1.7661283,11.7150151 1.3002585,11.7752883 L1.10287661,11.8022735 C1.02849324,11.8129446 0.950454652,11.8240557 0.817217153,11.8468281 C0.745493449,11.8600812 0.677039823,11.8694451 0.491277609,11.9134108 C0.403886599,11.855519 0.235673802,11.9687207 0.117849269,12.0829578 C-0.00401562618,12.197512 -0.0590764678,12.3113478 0.0208660317,12.2578629 C0.0396871455,12.2752382 0.0914561089,12.3074586 0.127703103,12.3215854 C0.170642857,12.3407856 0.223807054,12.3586851 0.282268776,12.3749538 C0.400478451,12.407213 0.541040924,12.4312926 0.676160535,12.4479625 C0.811410949,12.464626 0.940346479,12.4747859 1.0575388,12.4817684 C1.29280999,12.4954163 1.48375346,12.497953 1.652722,12.4987797 C1.98927113,12.4993443 2.25106629,12.4912099 2.50022441,12.4826808 C2.74711527,12.4737893 2.97480715,12.4632347 3.19631495,12.4520071 C3.63679441,12.4293512 4.05113506,12.4042751 4.45929162,12.3783642 C6.08255819,12.2738534 7.62828759,12.1602116 9.1860218,12.0507762 C12.2908734,11.8305593 15.3818307,11.6208971 18.4866823,11.4320723 C24.6847658,11.0515495 30.9336154,10.7546353 37.2027903,10.5585821 C43.4748866,10.3628136 49.7545476,10.2697699 56.0337072,10.3105129 C62.3213254,10.3489651 68.6220747,10.4996224 74.9004786,10.7286855 C81.1793911,10.9587063 87.4394753,11.2674435 93.6578913,11.6426858 C86.8660126,11.1940012 80.0157885,10.8240718 73.1329943,10.5507713 C66.2509487,10.2786549 59.3306358,10.1022808 52.4163908,10.0720471 C56.7882667,10.0665724 61.1715007,10.120575 65.5480418,10.2194558 C69.9250917,10.3185696 74.2969603,10.462801 78.65633,10.6435367 C71.7269263,10.3066237 64.7505498,10.059907 57.7545965,9.94495808 C66.0073424,9.98170188 74.2739753,10.2004045 82.4940132,10.53867 C86.6046026,10.7084499 90.7049603,10.9092659 94.7899123,11.1392026 C98.8733455,11.3698965 102.94731,11.6270513 106.981874,11.9239266 C104.21812,11.70569 101.430495,11.507456 98.6360542,11.3222421 C95.8409807,11.1373389 93.0356828,10.9666013 90.2227982,10.8097509 C84.5971746,10.4962897 78.9404706,10.237433 73.2634486,10.0444731 C67.5867899,9.85195318 61.888418,9.72485769 56.1877714,9.68890986 C50.488898,9.65078122 44.7884986,9.7210073 39.1056631,9.87777996 C37.9278307,9.91022596 36.7501282,9.94630774 35.5725767,9.98602467 C40.3931436,9.79143398 45.2416151,9.65621707 50.1030943,9.59514782 C54.9636869,9.53424036 59.8414583,9.55190042 64.7130457,9.62459204 C70.4294758,9.71005793 76.1373164,9.87349599 81.8264741,10.0940688 C87.5160023,10.3151593 93.1877268,10.5928279 98.8379851,10.9213672 C100.253522,11.0024326 101.667409,11.0871025 103.079276,11.1759464 C103.789259,11.2191372 104.499153,11.2634848 105.208954,11.308989 L106.288952,11.3762448 L106.846754,11.4099665 L107.144026,11.4268694 C107.250485,11.4326676 107.351131,11.4382588 107.502797,11.4450019 C107.543971,11.4467879 107.590188,11.4487358 107.659521,11.4509554 C107.752217,11.4515896 107.760675,11.4594845 108.150011,11.4531362 C108.647324,11.4274648 108.883984,11.3630693 108.959123,11.283201 C109.030977,11.203048 108.933231,11.1070211 108.794819,11.0234966 L108.794827,11.0234966 Z M108.435109,15.3806378 C108.169401,15.3953578 108.132654,15.3895378 108.047486,15.3902078 C107.928189,15.3883078 107.877729,15.3855478 107.822319,15.3833978 C107.637541,15.3743278 107.558357,15.3679478 107.450439,15.3608978 L107.208505,15.3432978 L107.274128,15.2944278 C107.395893,15.3036278 107.521315,15.3127578 107.679542,15.3224478 C107.740063,15.3258178 107.796791,15.3294978 107.918564,15.3334878 C107.955756,15.3344078 107.983608,15.3355078 108.052294,15.3358778 C108.118362,15.3342778 108.176551,15.3405378 108.415128,15.3223278 C108.852925,15.4226978 109.321201,14.8730078 108.734509,14.8272678 C108.50147,14.7484778 108.469531,14.7519178 108.394568,14.7324178 C108.28665,14.7097878 108.239405,14.7022478 108.193024,14.6942178 L108.084821,14.6767378 L107.927022,14.6536278 L107.644691,14.6157278 L107.636089,14.5606678 L107.835292,14.5862978 C107.934021,14.5997278 108.026339,14.6118078 108.17786,14.6352978 C108.228633,14.6431498 108.279338,14.6516102 108.329969,14.6606778 C108.376234,14.6689671 108.422417,14.677901 108.468508,14.6874778 C108.561262,14.7113178 108.591153,14.7039078 108.885443,14.8030478 C109.693517,14.9083278 108.771844,15.5366878 108.435109,15.3806378 L108.435109,15.3806378 Z M104.789409,14.1155122 L103.759512,14.0498476 L103.441788,14.0248523 C99.4029312,13.7125731 95.3518182,13.4448914 91.2794266,13.2051802 C83.1360188,12.7289471 74.9184061,12.3714741 66.6357191,12.1686142 C75.7603384,12.385184 84.8084989,12.7871766 93.7685568,13.3325681 C96.0090411,13.4709173 98.2438944,13.6180175 100.473621,13.7745752 C101.589359,13.8547015 102.703973,13.9372132 103.817328,14.0225512 L105.492436,14.1566092 L105.635719,14.1686142 L104.789401,14.1155122 L104.789409,14.1155122 Z M104.798138,15.0808305 C103.669012,15.0031612 102.538746,14.9285259 101.407335,14.8564703 C99.1523756,14.7086329 96.8925971,14.5711631 94.6288901,14.4430401 C85.584453,13.9260042 76.4765686,13.5454035 67.3405058,13.3585566 C62.7732374,13.2660945 58.1992512,13.2235756 53.632618,13.2483515 C49.0667517,13.2729596 44.5089978,13.3718394 39.9725659,13.530317 C43.3034779,13.3851711 46.6501257,13.2716243 50.0093404,13.1957097 C54.158349,13.142215 58.3167553,13.1501427 62.4708461,13.2029942 C66.6255721,13.2561533 70.7764939,13.3549982 74.9176382,13.4907483 C83.2023438,13.7624721 91.444924,14.1774893 99.6421952,14.6994119 C100.982737,14.7844566 102.320226,14.872892 103.661272,14.9633758 L105.592255,15.1256215 L105.972566,15.1592689 L104.798138,15.0808305 L104.798138,15.0808305 Z M39.7142674,14.0844846 C43.2331921,13.9993153 46.7553963,13.9496857 50.2711859,13.9420715 C53.7837175,13.9342515 57.303025,13.971472 60.8200787,14.0425104 C57.0490654,13.9836272 53.2828271,13.9638989 49.5242388,13.9962833 C45.7621469,14.0281669 41.9976568,14.1074919 38.2404626,14.2265204 C30.7257998,14.4655105 23.2397722,14.8598167 15.8347087,15.3801414 C13.9791411,15.5083825 12.1268386,15.643689 10.2718995,15.7829947 C8.41106572,15.921244 6.57119539,16.0679101 4.6430648,16.1981679 C4.15597911,16.2300515 3.66626396,16.2609199 3.12306387,16.2844348 C2.84788805,16.2955337 2.56504779,16.3063033 2.20714513,16.305661 C2.0263698,16.3042454 1.82312848,16.3017623 1.56941453,16.2803945 C1.4447536,16.2696248 1.3055295,16.2527158 1.17723499,16.2255516 C1.04705508,16.1973653 0.942606306,16.1622919 0.877577752,16.115859 L0.855111766,16.0978181 L0.850459645,16.0933594 C0.762965105,16.0622303 0.886239076,15.9231372 0.946622733,15.9137189 C1.00763486,15.8813277 1.13355274,15.8411645 1.15401773,15.8365754 C1.19468767,15.824715 1.25431283,15.8095346 1.28682711,15.8021331 L1.36654885,15.7846341 C1.388595,15.7800242 1.41068885,15.7756223 1.43282712,15.7714293 L1.4859292,15.7614554 C1.61059014,15.7391272 1.68880211,15.7276373 1.76550431,15.7160308 C1.91501508,15.6939496 2.03917758,15.6774247 2.16408412,15.6611056 C2.41063929,15.6290505 2.64514517,15.600535 2.87889256,15.5729455 C3.34551325,15.5178076 3.80561086,15.4666621 4.26645252,15.4166141 C6.10682852,15.2181303 7.94921273,15.0401293 9.80214367,14.8711351 C17.2117292,14.2004881 24.7395682,13.6812129 32.3446005,13.305661 C26.518672,13.6005846 20.7414534,13.9832911 15.0293862,14.4496441 C12.1736632,14.6836267 9.33476448,14.9376325 6.51695918,15.2222461 C5.81206901,15.2936275 5.10918705,15.3670189 4.40642789,15.4438195 C3.70078645,15.5213335 3.00806836,15.5988955 2.27932524,15.6928178 L1.99423116,15.7312592 C1.89317034,15.7456439 1.79676164,15.7591094 1.65352112,15.7831593 C1.62088404,15.7885853 1.57330816,15.7971255 1.52359404,15.8068388 C1.49848414,15.8115925 1.45454906,15.8209697 1.42253322,15.8281654 C1.41148805,15.8304771 1.37407604,15.839525 1.34470411,15.8473039 C1.31256547,15.8560499 1.2913492,15.8616062 1.25406722,15.8735489 C1.19443484,15.8928931 1.1425897,15.9144324 1.10442642,15.935711 C1.04855763,15.9621686 0.995332747,16.0286249 1.04027917,16.065763 L1.05784742,16.0821233 C1.08333295,16.1027365 1.10405078,16.1136708 1.13392838,16.1272117 C1.25005079,16.1805798 1.45392059,16.2142743 1.62641024,16.2308061 C1.98004363,16.2627309 2.2431774,16.2583133 2.47943144,16.2565915 C2.7155699,16.2532303 2.92596999,16.2454789 3.12996981,16.2366985 C3.93616641,16.2001435 4.65837923,16.1482434 5.38812646,16.0966314 C6.83720422,15.9915691 8.25589872,15.8795236 9.67824123,15.7706679 C11.0991896,15.6614418 12.5178913,15.5541432 13.9382183,15.4504665 C16.7788725,15.2429416 19.626057,15.050309 22.4822784,14.8767257 C28.1930886,14.529559 33.9444532,14.2597897 39.7142674,14.0844846 Z M108.838251,14.6287863 C108.556762,14.4612261 108.080159,14.3406407 108.313912,14.4730102 C108.184344,14.4543212 108.135853,14.4491248 108.080661,14.4424206 C107.892878,14.4206384 107.799427,14.411941 107.688295,14.4009528 C107.479548,14.3806395 107.294541,14.363976 107.108772,14.3474679 C106.739762,14.3148527 106.381623,14.2847743 106.023855,14.2553366 C105.312903,14.1981634 104.601832,14.1421761 103.890645,14.0873751 C102.474607,13.9815118 101.056926,13.8797772 99.6371023,13.7817312 C93.9633576,13.3955007 88.258162,13.0745005 82.5177368,12.812777 C76.7778203,12.5520889 71.003677,12.3523923 65.199478,12.2309333 C62.2974367,12.1705047 59.3879541,12.1297876 56.4724037,12.1128523 C53.5584956,12.0955482 50.6294288,12.1036049 47.7140092,12.1388797 C41.0053576,12.2204952 34.3369934,12.4322606 27.7272144,12.741399 C32.4261635,12.5486008 37.1482211,12.4056767 41.8864474,12.3227863 C40.3159671,12.3817524 38.7500286,12.4473775 37.1885084,12.5191566 C41.4486203,12.4130604 45.7233749,12.3527094 50.0024241,12.3482637 C54.2861533,12.3437791 58.5544694,12.3990889 62.8051053,12.4976138 C58.9540366,12.4336907 55.0942476,12.4053984 51.2266322,12.4244433 C47.361037,12.4438894 43.5039077,12.5101486 39.6614284,12.6149442 C36.7568654,12.6943012 33.8495265,12.7971489 31.115698,12.9115801 C28.3812445,13.0258949 25.8197999,13.1514372 23.6014736,13.2702754 C19.1649447,13.5081847 16.0986074,13.7147148 15.7413478,13.7334427 C20.0308831,13.4981866 24.3394866,13.3024958 28.6614683,13.1496512 C24.3159929,13.3791543 19.9993087,13.6519437 15.7158411,13.9643306 C11.4324899,14.2773971 7.18058955,14.6280745 2.97213035,15.0267233 C8.97775885,14.5019368 15.0570077,14.0699545 21.1850025,13.7153879 C18.0677755,13.9154079 14.9667172,14.1379286 11.8848434,14.3852794 C10.3286352,14.5102717 8.77721588,14.6415671 7.23022206,14.7811521 C5.68083018,14.921656 4.14784682,15.0664827 2.58532376,15.2351949 C2.18676669,15.2790053 1.80955233,15.3203048 1.34368253,15.3805781 L1.14630064,15.4075633 C1.07191727,15.4182344 0.993878683,15.4293455 0.860641184,15.4521179 C0.78891748,15.465371 0.720463853,15.4747349 0.53470164,15.5187006 C0.44731063,15.4608088 0.279097833,15.5740104 0.1612733,15.6882475 C0.0394084047,15.8028017 -0.0156524369,15.9166376 0.0642900625,15.8631527 C0.0831111764,15.880528 0.13488014,15.9127484 0.171127134,15.9268751 C0.214066888,15.9460754 0.267231084,15.9639748 0.325692807,15.9802436 C0.443902482,16.0125028 0.584464955,16.0365824 0.719584566,16.0532523 C0.854834979,16.0699158 0.98377051,16.0800757 1.10096283,16.0870582 C1.33623402,16.100706 1.52717749,16.1032428 1.69614604,16.1040695 C2.03269517,16.1046341 2.29449032,16.0964997 2.54364844,16.0879706 C2.79053931,16.0790791 3.01823118,16.0685245 3.23973898,16.0572968 C3.68021844,16.034641 4.09455909,16.0095649 4.50271565,15.9836539 C6.12598222,15.8791431 7.67171162,15.7655014 9.22944583,15.656066 C12.3342974,15.4358491 15.4252548,15.2261869 18.5301063,15.0373621 C24.7281898,14.6568392 30.9770394,14.359925 37.2462144,14.1638718 C43.5183106,13.9681034 49.7979716,13.8750596 56.0771312,13.9158027 C62.3647494,13.9542549 68.6654988,14.1049122 74.9439026,14.3339753 C81.2228151,14.5639961 87.4828993,14.8727333 93.7013154,15.2479756 C86.9094367,14.799291 80.0592125,14.4293616 73.1764184,14.156061 C66.2943727,13.8839447 59.3740599,13.7075706 52.4598149,13.6773369 C56.8316907,13.6718622 61.2149247,13.7258648 65.5914659,13.8247456 C69.9685157,13.9238594 74.3403843,14.0680908 78.699754,14.2488265 C71.7703503,13.9119135 64.7939739,13.6651968 57.7980205,13.5502479 C66.0507664,13.5869916 74.3173993,13.8056942 82.5374372,14.1439598 C86.6480266,14.3137397 90.7483843,14.5145557 94.8333363,14.7444924 C98.9167696,14.9751862 102.990734,15.232341 107.025298,15.5292164 C104.261544,15.3109797 101.473919,15.1127457 98.6794782,14.9275319 C95.8844047,14.7426287 93.0791068,14.571891 90.2662223,14.4150407 C84.6405986,14.1015795 78.9838947,13.8427228 73.3068727,13.6497628 C67.630214,13.457243 61.931842,13.3301475 56.2311955,13.2941996 C50.5323221,13.256071 44.8319226,13.3262971 39.1490871,13.4830697 C37.9712547,13.5155157 36.7935522,13.5515975 35.6160007,13.5913144 C40.4365676,13.3967238 45.2850391,13.2615068 50.1465183,13.2004376 C55.0071109,13.1395301 59.8848823,13.1571902 64.7564697,13.2298818 C70.4728998,13.3153477 76.1807405,13.4787858 81.8698981,13.6993586 C87.5594264,13.920449 93.2311509,14.1981177 98.8814091,14.526657 C100.296946,14.6077224 101.710833,14.6923923 103.1227,14.7812362 C103.832683,14.824427 104.542577,14.8687746 105.252378,14.9142788 L106.332376,14.9815345 L106.890178,15.0152563 L107.18745,15.0321592 C107.293909,15.0379574 107.394555,15.0435486 107.546221,15.0502916 C107.587395,15.0520777 107.633612,15.0540256 107.702945,15.0562452 C107.795641,15.0568794 107.8041,15.0647743 108.193435,15.058426 C108.690748,15.0327545 108.927408,14.9683591 109.002547,14.8884908 C109.074401,14.8083378 108.976655,14.7123108 108.838243,14.6287863 L108.838251,14.6287863 Z" id="Shape" transform="translate(54.573245, 12.402234) rotate(-9.000000) translate(-54.573245, -12.402234) "></path>
                </g>
                <path id="Line" d="M56.3162599,42.6307552 C60.3544865,45.1464415 63.5179621,49.3420065 65.819195,55.1835977 C66.6947495,57.4061592 67.4543918,59.6632203 68.1166166,62.0325263 L69.678,69.99 L72.7950382,60.5392202 C72.9680374,60.0147302 73.5334641,59.7297906 74.0579541,59.9027898 C74.582444,60.0757891 74.8673836,60.6412157 74.6943844,61.1657057 L70.3816047,74.240966 C70.137339,74.9815179 69.1771119,75.169959 68.6710808,74.5766501 L59.7365452,64.1011276 C59.3781528,63.6809213 59.4282628,63.0497423 59.8484691,62.6913499 C60.2686753,62.3329575 60.8998543,62.3830675 61.2582467,62.8032738 L67.716,70.375 L66.1725968,62.4955382 C65.547224,60.2692676 64.809168,58.0763439 63.9583782,55.9166468 C61.8041643,50.4482577 58.9001167,46.5967596 55.2587435,44.3283002 C54.7899794,44.0362751 54.6467041,43.4195336 54.9387292,42.9507695 C55.2307543,42.4820054 55.8474958,42.3387301 56.3162599,42.6307552 Z"></path>
            </g>
        </g>
    </g>
</svg>